PathFileType	4	(x/y/z)	S06_M20_T14
DataRate	CameraRate	NumFrames	NumMarkers	Units	OrigDataRate	OrigDataStartFrame	OrigNumFrames
240	240	4	51	mm	240	62	488
Frame#	Time	Sternum			R.Acromium			L.Acromium			Top.Head			R.ASIS			L.ASIS			R.PSIS			L.PSIS			R.Great.Tro			L.Great.Tro			R.Iliac.Crest			L.Iliac.Crest			V.Sacral			R.Thigh.Upper.Post			R.Thigh.Lower.Ant			R.Thigh.Lower.Post			R.Thigh.Upper.Ant			R.Knee.Lat			R.Knee.Med			R.Shank.Upper.Post			R.Shank.Lower.Ant			R.Shank.Lower.Post			R.Shank.Upper.Ant			R.Ankle.Lat			R.Ankle.Med			R.Heel.Upper			R.Heel.Med			R.Heel.Lat			R.Toe.Lat			R.Toe.Med			R.Toe.Tip			L.Thigh.Upper.Post			L.Thigh.Lower.Ant			L.Thigh.Lower.Post			L.Thigh.Upper.Ant			L.Knee.Lat			L.Knee.Med			L.Shank.Upper.Post			L.Shank.Lower.Ant			L.Shank.Lower.Post			L.Shank.Upper.Ant			L.Ankle.Lat			L.Ankle.Med			L.Heel.Upper			L.Heel.Med			L.Heel.Lat			L.Toe.Lat			L.Toe.Med			L.Toe.Tip			Cervical.Spine			Back			
		X1	Y1	Z1	X2	Y2	Z2	X3	Y3	Z3	X4	Y4	Z4	X5	Y5	Z5	X6	Y6	Z6	X7	Y7	Z7	X8	Y8	Z8	X9	Y9	Z9	X10	Y10	Z10	X11	Y11	Z11	X12	Y12	Z12	X13	Y13	Z13	X14	Y14	Z14	X15	Y15	Z15	X16	Y16	Z16	X17	Y17	Z17	X18	Y18	Z18	X19	Y19	Z19	X20	Y20	Z20	X21	Y21	Z21	X22	Y22	Z22	X23	Y23	Z23	X24	Y24	Z24	X25	Y25	Z25	X26	Y26	Z26	X27	Y27	Z27	X28	Y28	Z28	X29	Y29	Z29	X30	Y30	Z30	X31	Y31	Z31	X32	Y32	Z32	X33	Y33	Z33	X34	Y34	Z34	X35	Y35	Z35	X36	Y36	Z36	X37	Y37	Z37	X38	Y38	Z38	X39	Y39	Z39	X40	Y40	Z40	X41	Y41	Z41	X42	Y42	Z42	X43	Y43	Z43	X44	Y44	Z44	X45	Y45	Z45	X46	Y46	Z46	X47	Y47	Z47	X48	Y48	Z48	X49	Y49	Z49	X50	Y50	Z50	X51	Y51	Z51	

62	0.25417	-1193	1291.1	320.27	-1334.3	1494.5	482.55	-1344.2	1487.2	132.16	-1315.5	1806.9	299.01	NaN	NaN	NaN	NaN	NaN	NaN	-1423.3	1059.5	338.53	-1424.2	1066.2	259.06	-1295.9	967.32	488.61	-1295.8	978.3	130.88	-1327.3	1119.4	473.29	-1291.2	1122	151.94	-1438.1	1028.9	301.31	-1285.9	720.47	498.06	-1222.9	638.47	476.81	-1290.6	631.42	486.18	-1215.1	730.68	490.1	-1281.4	525.58	484.14	-1249.9	514.66	357.97	-1487	424.9	471.91	-1510.6	340.92	454.7	-1547.5	382.98	453.6	-1435	377.96	471.79	-1635.1	288.03	429.02	-1609.2	264.08	346.88	-1682.9	321.3	369.67	-1699.6	299.59	338.73	-1710.4	308.28	402.05	-1667.4	141.75	463.74	-1632.8	110.92	353.92	-1601.9	60.099	405.16	-1184.7	725.92	156.03	-1127.9	658.72	222.7	-1188.7	637.2	177.1	-1130	751.23	197.25	-1193.7	544.05	194.95	-1168.7	556.06	315.05	-1228.9	315.57	210.04	-1162.8	255.37	216.76	-1233.4	244.28	228.69	-1162.3	325.36	203.16	-1182.7	107.79	234.61	-1179.3	127.78	324.05	-1264.7	73.359	277.91	-1262.3	46.635	309.64	-1257.9	48.801	248.09	-1076.2	45.793	219.87	-1063.6	44.137	340.61	-988.27	56.317	291.09	-1402.7	1541.5	308.11	-1441.3	1263.5	312.29
63	0.25833	-1188	1291.6	320.34	-1329.4	1495	482.46	-1338.5	1487.8	132.01	-1310	1807.5	298.92	NaN	NaN	NaN	NaN	NaN	NaN	-1418.3	1060	338.04	-1419.2	1066.8	258.6	-1290.7	967.97	488.38	-1290.5	979.01	130.62	-1322.6	1120	473.02	-1286.2	1122.7	151.76	-1433.1	1029.5	300.79	-1276.7	721.24	498.13	-1214.4	640.16	477.34	-1280.7	632.13	486.27	-1206.2	732.22	489.57	-1270.4	526.5	484.08	-1239.5	515.85	357.67	-1475.5	425.65	472.04	-1499	341.64	455.05	-1536.3	383.56	453.89	-1423.7	378.78	471.94	-1623.7	288.36	429.47	-1598	264.45	347.48	-1672.6	320.81	370.06	-1689	298.54	339.31	-1699.7	307.56	402.59	-1654	142.09	465.05	-1619.3	111.06	355.32	-1587.2	61.032	406.78	-1181.2	726.16	155.92	-1124.8	658.58	222.52	-1185.7	637.43	176.88	-1126.4	751.09	197.13	-1191.7	544.18	194.83	-1166	556.01	314.92	-1227.8	315.78	210.14	-1162	255.28	216.72	-1232.6	244.54	228.83	-1161.2	325.25	203.05	-1182.4	107.94	234.74	-1178.9	127.86	324.15	-1264.7	73.5	277.99	-1262.3	46.715	309.68	-1257.8	48.987	248.13	-1076.1	45.803	219.9	-1063.4	43.858	340.68	-988.13	55.822	291.15	-1397.5	1542.2	307.94	-1436.3	1264.2	311.87
64	0.2625	-1183	1292.1	320.4	-1324.6	1495.5	482.37	-1332.8	1488.3	131.87	-1304.4	1808.1	298.84	NaN	NaN	NaN	NaN	NaN	NaN	-1413.4	1060.6	337.6	-1414.3	1067.5	258.18	-1285.6	968.62	488.17	-1285.3	979.74	130.39	-1318	1120.6	472.77	-1281.2	1123.4	151.59	-1428.2	1030.2	300.3	-1267.6	722.06	498.18	-1205.5	641.9	477.8	-1270.8	632.9	486.33	-1197.4	733.81	489	-1259.6	527.49	483.98	-1229.1	517.11	357.35	-1463.9	426.32	472.14	-1487.2	342.26	455.39	-1525	383.99	454.15	-1412.4	379.56	472.07	-1612.2	288.46	429.93	-1586.6	264.64	348.08	-1662.2	320.09	370.52	-1678.4	297.27	339.96	-1689	306.56	403.19	-1640.4	142.2	466.3	-1605.6	111.06	356.6	-1572.4	61.837	408.27	-1177.8	726.41	155.8	-1121.8	658.44	222.31	-1182.8	637.68	176.64	-1122.9	750.96	197	-1189.6	544.3	194.69	-1163.5	555.97	314.77	-1226.8	315.99	210.19	-1161.2	255.2	216.65	-1231.8	244.8	228.93	-1160.1	325.15	202.91	-1182.2	108.09	234.85	-1178.6	127.95	324.21	-1264.6	73.637	278.06	-1262.2	46.795	309.7	-1257.7	49.163	248.16	-1076	45.808	219.92	-1063.3	43.64	340.72	-987.99	55.385	291.19	-1392.3	1542.8	307.78	-1431.3	1264.9	311.45
65	0.26667	-1178.1	1292.7	320.47	-1319.7	1496	482.29	-1327.2	1488.9	131.73	-1298.9	1808.8	298.79	NaN	NaN	NaN	NaN	NaN	NaN	-1408.5	1061.2	337.21	-1409.3	1068.2	257.8	-1280.5	969.29	487.98	-1280.1	980.48	130.18	-1313.4	1121.2	472.54	-1276.2	1124.1	151.44	-1423.3	1030.8	299.86	-1258.6	722.95	498.21	-1196.3	643.69	478.17	-1261	633.73	486.37	-1188.6	735.46	488.41	-1248.7	528.54	483.84	-1218.8	518.44	357.01	-1452.4	426.91	472.2	-1475.3	342.76	455.72	-1513.6	384.29	454.39	-1401	380.3	472.18	-1600.6	288.35	430.4	-1575.2	264.65	348.69	-1651.6	319.13	371.06	-1667.7	295.79	340.67	-1678.3	305.28	403.86	-1626.6	142.08	467.47	-1591.7	110.93	357.78	-1557.3	62.507	409.63	-1174.5	726.67	155.66	-1118.8	658.31	222.07	-1179.9	637.95	176.39	-1119.4	750.83	196.85	-1187.5	544.41	194.53	-1161	555.93	314.59	-1225.8	316.2	210.19	-1160.4	255.15	216.55	-1231	245.06	228.99	-1159	325.06	202.74	-1182	108.24	234.93	-1178.3	128.05	324.25	-1264.5	73.77	278.12	-1262.2	46.876	309.72	-1257.6	49.33	248.18	-1076	45.807	219.92	-1063.1	43.478	340.74	-987.87	55	291.21	-1387.1	1543.5	307.62	-1426.3	1265.6	311.04
